<svg width="846" height="695" viewBox="0 0 846 695" fill="none" xmlns="http://www.w3.org/2000/svg">
<g clip-path="url(#clip0_103_9)">
<path fill-rule="evenodd" clip-rule="evenodd" d="M719.187 82.3559C706.644 84.3475 675.388 89.0933 649.73 92.9066C624.073 96.7199 602.444 100.774 601.668 101.915C600.891 103.057 600.165 124.559 600.055 149.693L599.856 195.394L620.455 203.4C631.786 207.804 643.94 211.524 647.466 211.667C653.359 211.91 653.879 212.519 653.906 219.204C653.921 223.206 654.503 228.609 655.202 231.21C656.407 235.705 656.056 235.873 648.084 234.598C640.631 233.407 598.077 237.021 596.072 239.017C594.632 240.449 585.944 278.337 582.513 298.147C580.653 308.883 578.547 327.694 577.831 339.946C577.116 352.2 575.974 362.212 575.291 362.196C574.611 362.179 544.99 354.843 509.469 345.892L444.885 329.617L442.7 334.411C441.188 337.725 438.084 339.615 432.644 340.533C428.315 341.264 423.372 342.236 421.659 342.694C419.945 343.152 414.846 350.426 410.326 358.861C403.093 372.365 402.46 374.616 405.033 377.716C407.061 380.157 409.748 380.875 413.822 380.06C419.229 378.98 419.511 379.225 417.403 383.162C415.584 386.557 415.856 388.259 418.709 391.411C422.538 395.638 428.91 396.681 430.933 393.409C431.605 392.321 435.076 389.353 438.644 386.814L445.134 382.195L439.173 392.795C433.322 403.201 433.282 403.476 437.089 407.679C442.559 413.722 445.65 413.097 456.91 403.673C462.359 399.114 467.951 395.384 469.34 395.384C470.727 395.384 475.263 398.001 479.418 401.201C486.043 406.301 492.472 407.996 531.55 414.954C556.067 419.318 577.473 423.6 579.119 424.468C581.559 425.755 592.372 459.546 590.85 461.129C590.603 461.384 572.142 464.605 549.82 468.283L509.239 474.975L503.43 487.509C500.233 494.402 494.983 505.392 491.761 511.931L485.904 523.82L507.746 534.773L529.589 545.726L494.062 553.539C474.523 557.837 452.338 563.261 444.765 565.59C427.906 570.775 407.15 579.987 407.15 582.283C407.15 583.214 405.877 583.974 404.32 583.974C400.229 583.974 390.31 592.252 391.702 594.502C392.351 595.551 391.474 596.409 389.755 596.409C386.182 596.409 375.175 618.112 372.33 630.766C369.382 643.878 369.177 671.016 372.026 671.016C373.647 671.016 374.004 673.329 373.116 678.063C372.389 681.938 372.832 689.633 374.101 695.16C375.37 700.689 376.84 707.543 377.371 710.393C378.737 717.752 388.532 729.287 398.017 734.708C416.128 745.062 459.61 756.123 483.864 756.548C502.109 756.867 514.978 750.442 573.378 711.858L591.362 699.977L616.169 702.401L640.975 704.828L642.304 716.562C643.034 723.016 645.165 730.483 647.039 733.158C648.914 735.834 649.353 737.347 648.016 736.52C641.57 732.536 649.469 746.857 658.366 755.279C666.578 763.057 684.144 770.706 706.84 776.391C725.677 781.11 749.823 785 760.285 785C770.562 785 794.908 771.923 832.634 746.136C850.556 733.886 880.516 713.406 899.211 700.625C937.901 674.173 949.336 665.106 956.308 655.341C966.478 641.101 969.167 608.632 961.867 588.262C951.164 558.401 929.475 551.497 876.761 561.178C864.348 563.457 853.998 565.323 853.763 565.323C853.527 565.323 852.99 560.995 852.569 555.709C851.707 544.859 850.338 546.146 882.294 527.762L898.193 518.614L892.149 503.11C888.825 494.582 886.371 486.803 886.694 485.82C887.017 484.838 899.781 479.487 915.057 473.929C930.334 468.37 943.458 462.812 944.221 461.577C944.984 460.342 945.179 453.687 944.652 446.788C943.976 437.922 944.48 433.761 946.369 432.594C948.129 431.506 946.497 430.466 941.588 429.545L934.134 428.149L935.212 404.788C936.278 381.728 934.611 372.587 929.338 372.587C928.117 372.587 925.196 370.146 922.849 367.161C920.5 364.179 915.99 360.648 912.824 359.319C909.66 357.989 892.004 340.321 873.591 320.059C855.177 299.795 837.879 282.2 835.151 280.959C832.422 279.715 829.684 277.104 829.066 275.156C828.448 273.208 824.276 268.226 819.798 264.085C815.319 259.942 810.064 253.196 808.115 249.095C803.86 240.13 802.697 239.616 770.72 232.514L745.539 226.922L744.216 218.653C743.489 214.106 743.375 209.903 743.961 209.317C744.548 208.728 755.601 208.154 768.52 208.038L792.009 207.829L791.594 193.322C791.364 185.343 791.074 160.617 790.947 138.376L790.717 97.9343L772.337 88.1193C751.873 77.1893 751.811 77.181 719.187 82.3559ZM749.661 132.637C749.317 160.242 748.85 183.003 748.624 183.219C747.696 184.098 725.95 185.948 702.6 187.136C688.916 187.832 665.125 189.268 649.73 190.325C634.336 191.384 617.542 192.259 612.41 192.269L603.08 192.29L603.675 147.934L604.273 103.578L621.299 101.138C630.664 99.7974 661.652 95.149 690.16 90.8072C718.669 86.4676 743.86 82.8097 746.141 82.6792C750.196 82.4491 750.273 83.5516 749.661 132.637ZM770.942 91.9595C778.389 96.0505 784.864 100.015 785.329 100.767C786.088 101.994 787.47 193.515 786.832 200.198C786.658 202.014 781.004 199.927 769.986 193.981L753.401 185.032L753.414 148.765C753.426 115.826 755.043 84.5195 756.735 84.5195C757.102 84.5195 763.494 87.8664 770.942 91.9595ZM669.427 107.482C613.236 114.769 616.557 112.307 616.557 146.692C616.557 166.857 617.187 171.879 620.185 175.567L623.814 180.034L674.484 176.059C737.192 171.139 732.664 174.305 732.664 135.385C732.664 111.447 732.181 107.521 728.872 104.529C724.205 100.307 725.127 100.26 669.427 107.482ZM714.004 128.04C716.285 130.32 718.151 134.05 718.151 136.33C718.151 141.14 711.23 148.765 706.865 148.765C703.191 148.765 697.417 140.881 697.417 135.868C697.417 131.918 704.363 123.896 707.784 123.896C708.924 123.896 711.723 125.761 714.004 128.04ZM645.938 135.615C648.024 137.501 649.73 140.765 649.73 142.869C649.73 146.846 642.868 154.982 639.511 154.982C635.677 154.982 631.07 148.342 631.07 142.815C631.07 132.768 638.704 129.073 645.938 135.615ZM673.7 216.637C674.48 222.05 676.87 230.394 679.012 235.175C683.432 245.048 683.752 247.472 680.874 249.251C677.297 251.46 670.205 246.055 667.178 238.816C662.22 226.955 664.256 206.793 670.41 206.793C671.44 206.793 672.921 211.224 673.7 216.637ZM741.086 264.01C732.199 308.257 729.809 329.972 729.815 366.37C729.823 399.98 733.056 424.404 740.781 449.217C744.639 461.604 744.677 462.594 741.372 465.009C739.433 466.424 737.837 469.759 737.822 472.414C737.802 476.596 736.827 477.209 730.566 476.985C671.262 474.863 639.449 473.578 635.217 473.135C632.366 472.836 623.347 472.474 615.174 472.329L600.312 472.063L597.111 463.256C577.008 407.961 575.596 344.568 592.757 267.859C595.809 254.22 598.482 242.87 598.695 242.637C599.769 241.481 637.788 237.684 638.742 238.64C639.353 239.249 637.917 250.287 635.553 263.165C627.324 307.983 626.105 319.964 625.997 357.044C625.9 390.165 626.412 396.014 630.562 409.211C635.932 426.279 634.311 425.446 666.417 427.629L686.213 428.973L684.687 413.733C680.837 375.31 683.804 314.696 691.388 276.721C695.273 257.283 701.473 237.249 703.637 237.141C704.207 237.112 714.004 236.057 725.407 234.795C736.811 233.533 746.398 232.646 746.711 232.824C747.026 233.003 744.494 247.037 741.086 264.01ZM779.289 238.652C798.214 242.967 800.329 243.939 803.841 249.951C807.24 255.768 807.304 256.56 804.385 256.79C802.568 256.933 799.218 257.281 796.937 257.567C794.657 257.853 789.527 258.201 785.54 258.344C774.958 258.722 762.628 270.497 758.593 284.08C752.437 304.798 756.445 329.167 768.211 342.562C776.16 351.612 782.789 353.342 802.809 351.593L818.707 350.205L826.903 358.221L835.101 366.237L832.565 393.763C829.636 425.591 826.787 438.345 822.066 440.778C820.219 441.729 803.423 446.912 784.74 452.299C746.682 463.266 749.358 463.73 743.926 445.244C731.768 403.878 730.203 348.161 739.674 293.878C748.278 244.561 751.067 233.718 755.118 233.834C757.023 233.89 767.9 236.057 779.289 238.652ZM650.925 239.091L655.227 240.246L650.516 263.413C642.776 301.474 640.769 322.998 642.105 353.626C642.783 369.184 644.543 387.508 646.015 394.347L648.694 406.782L664.244 407.818L679.794 408.854L680.453 416.883L681.112 424.912L662.83 423.486C638.736 421.61 638.29 421.428 635.663 412.442C625.922 379.109 627.208 329.172 639.503 263.266C642.107 249.304 644.773 237.892 645.428 237.908C646.083 237.923 648.557 238.455 650.925 239.091ZM819.709 270.246L826.932 277.255L817.635 277.264C804.86 277.274 795.718 283.174 792.93 293.209C788.48 309.222 791.632 320.88 804.184 334.834C809.251 340.468 812.805 345.672 812.079 346.398C808.936 349.542 798.834 347.301 792.635 342.087C774.153 326.544 772.345 287.503 789.262 269.285C798.874 258.931 808.361 259.231 819.709 270.246ZM784.958 267.44C777.749 275.11 773.735 287.423 773.643 302.158C773.54 318.745 776.745 329.64 784.723 339.824C791.076 347.931 790.066 351.034 782.08 347.952C776.136 345.658 769.642 338.665 764.544 329.066C761.666 323.649 760.685 317.355 760.673 304.197C760.656 289.209 761.423 285.238 765.808 277.585C771.07 268.394 778.254 262.98 785.376 262.831C789.185 262.752 789.166 262.962 784.958 267.44ZM812.342 285.027C809.375 291.64 808.894 308.916 811.434 317.498C813.385 324.09 820.702 332.823 844.564 357.044C868.967 381.813 875.459 389.604 876.514 395.384C877.725 402.036 874.58 399.369 838.615 363.261C806.775 331.294 798.919 322.264 796.863 315.276C793.632 304.311 795.749 292.761 802.164 286.349C808.121 280.395 814.807 279.527 812.342 285.027ZM869.4 321.817L901.431 356.768L895.317 358.731C886.966 361.41 881.927 366.092 878.384 374.467L875.396 381.527L847.357 353.742C831.933 338.46 818.013 322.956 816.42 319.288C810.793 306.333 813.632 284.689 821.181 282.967C829.76 281.008 838.329 287.914 869.4 321.817ZM678.164 299.836C681.546 304.273 681.442 306.547 677.602 312.024C674.046 317.1 664.636 318.267 660.512 314.144C656.39 310.024 657.555 300.616 662.624 297.066C667.737 293.486 674.206 294.641 678.164 299.836ZM483.345 361.124C492.752 367.829 500.405 373.849 500.349 374.504C500.295 375.159 497.261 381.461 493.61 388.507C487.401 400.494 486.714 401.126 482.949 398.351C479.006 395.444 479.014 395.384 483.322 395.384C486.478 395.384 489.07 392.681 492.503 385.809L497.288 376.234L490.135 370.266C485.518 366.413 481.622 364.728 479.145 365.516C476.319 366.411 475.477 365.808 475.956 363.23C476.592 359.802 456.222 342.933 448.121 340.18C446.139 339.507 445.049 338.098 445.698 337.047C446.349 335.996 451.235 338.241 456.56 342.035C461.884 345.83 473.938 354.42 483.345 361.124ZM519.757 352.743C549.19 360.19 574.147 366.823 575.219 367.485C577.338 368.794 577.966 387.094 575.891 387.094C572.803 387.094 509.324 372.197 505.235 370.512C500.902 368.728 464.364 343.208 460.02 338.931C458.654 337.586 459.359 337.283 462.093 338.048C464.374 338.684 490.322 345.297 519.757 352.743ZM449.506 345.407C450.13 346.414 444.789 347.867 437.639 348.632C424.879 349.997 424.504 350.217 417.55 360.405C407.32 375.389 406.103 374.852 415.01 359.282C421.877 347.274 423.478 345.751 429.957 345.053C444.163 343.521 448.387 343.598 449.506 345.407ZM674.965 351.148C679.271 355.042 679.987 364.312 676.269 368.028C671.988 372.307 662.577 370.987 659.052 365.613C651.706 354.405 665.104 342.226 674.965 351.148ZM430.581 359.589C424.209 368.061 415.342 376.564 412.765 376.665C410.049 376.775 426.594 354.248 429.957 353.259C436.22 351.415 436.278 352.008 430.581 359.589ZM465.204 357.044C467.449 359.748 466.182 360.152 455.488 360.152C441.526 360.152 439.855 361.17 429.092 376.214C424.813 382.197 420.905 387.094 420.409 387.094C419.462 387.094 428.657 370.579 434.267 362.2C437.321 357.641 441.08 356.486 460.286 354.213C461.571 354.059 463.783 355.334 465.204 357.044ZM917.292 366.888L922.322 371.551L914.794 372.181C900.984 373.337 897.49 382.222 901.672 405.545C903.552 416.033 900.689 415.93 895.195 405.308C888.581 392.526 892.398 370.146 902.159 364.463C907.801 361.178 911.831 361.825 917.292 366.888ZM468.314 366.37C467.609 367.509 464.134 368.442 460.59 368.442C457.047 368.442 452.67 369.86 450.864 371.592C442.258 379.847 425.122 391.873 426.287 388.843C427.006 386.965 431.014 380.676 435.192 374.864L442.787 364.297H456.191C464.598 364.297 469.118 365.07 468.314 366.37ZM890.955 371.994C886.35 383.011 887.938 403.692 894.023 411.917C899.157 418.86 897.826 419.944 890.48 414.8C877.974 406.044 876.388 380.303 887.594 367.928C892.949 362.011 894.397 363.763 890.955 371.994ZM486.81 372.324C487.426 373.318 481.367 374.777 473.348 375.567L458.766 377.003L449.181 390.321C443.91 397.645 439.274 403.315 438.88 402.923C438.486 402.529 441.918 395.775 446.504 387.915C452.78 377.161 456.253 373.3 460.543 372.313C469.321 370.297 485.562 370.303 486.81 372.324ZM864.526 395.587C882.848 413.859 891.575 421.107 896.692 422.309C902.748 423.732 902.004 423.967 891.274 424.012C883.076 424.047 870.713 426.549 855.024 431.344C841.927 435.348 830.977 438.389 830.689 438.103C830.403 437.814 831.548 430.372 833.233 421.56C834.921 412.751 836.54 397.661 836.835 388.031C837.127 378.398 837.821 370.517 838.375 370.517C838.929 370.514 850.695 381.797 864.526 395.587ZM576.718 392.173C577.543 393 581.315 418.868 580.697 419.48C580.066 420.106 493.822 403.957 492.907 403.041C492.474 402.608 494.883 396.163 498.261 388.719L504.402 375.182L540.209 383.328C559.903 387.809 576.332 391.79 576.718 392.173ZM916.805 383.567C920.674 391.635 917.543 400.565 910.848 400.565C904.042 400.565 901.023 391.945 904.709 383.046C907.964 375.194 912.893 375.405 916.805 383.567ZM930.879 400.94C930.995 413.683 930.529 424.912 929.842 425.89C929.156 426.87 923.695 427.309 917.709 426.87L906.824 426.07V415.973C906.824 408.626 907.546 406.152 909.476 406.892C916.95 409.76 924.978 391.809 921.012 381.092C919.471 376.933 919.88 376.527 924.982 377.113L930.667 377.768L930.879 400.94ZM490.084 379.743C490.084 380.259 489.001 383.057 487.676 385.96C485.57 390.582 483.994 391.239 475.006 391.239C466.012 391.239 463.478 392.298 454.524 399.792C448.903 404.494 443.888 407.928 443.38 407.418C441.292 405.331 461.127 381.14 465.633 380.278C472.307 379.001 490.084 378.611 490.084 379.743ZM909.416 429.693C919.395 430.47 927.557 431.759 927.557 432.561C927.557 433.361 900.735 442.477 867.949 452.819L808.341 471.622L781.906 469.446C767.367 468.248 755.485 466.717 755.502 466.039C755.547 464.165 884.606 426.727 888.164 427.556C889.875 427.954 899.439 428.915 909.416 429.693ZM940.354 442.531C941.237 461.77 947.65 457.598 878.283 482.931C843.77 495.534 815.21 505.473 814.814 505.017C814.42 504.559 813.574 497.633 812.933 489.621L811.77 475.056L874.329 455.074C908.736 444.084 937.586 435.017 938.442 434.926C939.299 434.834 940.157 438.258 940.354 442.531ZM595.446 471.027C597.677 475.922 598.753 476.219 614.959 476.38C624.39 476.476 634.44 476.826 637.29 477.155C640.141 477.487 661.6 478.428 684.977 479.246C708.354 480.065 728.306 481.52 729.313 482.479C730.321 483.439 728.455 483.885 725.167 483.47C721.878 483.056 704.726 482.198 687.05 481.563C609.079 478.764 583.954 477.769 577.164 477.218C573.172 476.894 561.976 476.426 552.284 476.177C532.921 475.684 533.748 475.189 562.65 469.979C590.877 464.889 592.674 464.947 595.446 471.027ZM779.314 473.154C788.437 473.815 798.389 474.83 801.428 475.408C807.177 476.503 810.661 481.387 807.213 483.518C806.122 484.191 805.231 483.288 805.231 481.512C805.231 477.686 790.877 476.94 784.36 480.426C781.255 482.088 780.351 481.895 780.351 479.572C780.351 476.842 771.095 474.297 761.691 474.44C750.99 474.602 740.957 473.172 740.957 471.485C740.957 470.333 745.485 470.02 751.842 470.731C757.828 471.402 770.191 472.492 779.314 473.154ZM741.061 485.851C735.301 489.727 730.557 493.573 730.516 494.398C730.141 501.935 727.843 520.95 727.228 521.63C726.796 522.104 726.444 515.545 726.444 507.052V491.611L736.292 484.204C741.71 480.131 747.353 477.249 748.836 477.8C750.428 478.393 747.254 481.682 741.061 485.851ZM577.164 481.354C597.12 482.061 619.978 483.01 627.96 483.464C635.943 483.918 660.667 484.915 682.904 485.679C705.14 486.446 723.334 487.192 723.334 487.339C723.334 487.486 722.867 495.345 722.297 504.802L721.261 521.996L714.004 516.494C675.548 487.337 622.161 488.989 590.829 520.305C580.126 531.003 569.407 547.9 571.804 550.293C572.436 550.925 575.534 548.832 578.688 545.641C608.038 515.93 700.175 521.089 737.188 554.513C745.077 561.636 745.595 561.824 744.154 557.029C742.193 550.501 733.282 534.862 730.566 533.186C727.342 531.194 728.173 528.019 731.917 528.019C733.788 528.019 736.556 526.388 738.071 524.392C740.584 521.083 740.831 521.244 740.891 526.222C740.939 530.052 742.303 532.031 745.467 532.858C752.058 534.582 755.734 531.685 759.862 521.518L763.532 512.476L763.648 523.4C763.751 533.076 764.376 534.603 769.109 536.758C776.668 540.203 780.044 537.32 785.472 522.782L790.095 510.403L806.611 510.293L823.126 510.186L828.616 529.886C831.635 540.721 833.907 549.755 833.662 549.96C833.42 550.165 813.041 553.512 788.376 557.394L743.532 564.454L735.506 557.57C725.633 549.102 702.049 537.587 687.93 534.342C682.143 533.011 669.081 531.629 658.903 531.271C624.145 530.042 598.162 536.238 580.021 550.08L570.579 557.284L532.348 540.292C511.323 530.947 493.65 522.539 493.073 521.607C492.497 520.676 496.749 510.505 502.524 499.005L513.021 478.094L526.952 479.083C534.613 479.628 557.208 480.649 577.164 481.354ZM772.057 479.296C772.057 479.854 767.038 483.642 760.905 487.712C748.89 495.685 747.25 499.498 747.2 519.557C747.188 524.591 746.595 528.129 745.883 527.416C744.04 525.573 743.087 498.122 744.772 495.395C749.45 487.83 772.057 474.49 772.057 479.296ZM785.884 490.819C773.685 499.552 772.924 501.042 771.257 519.423C769.708 536.516 767.911 534.727 767.911 516.09V499.328L777.759 490.889C783.353 486.096 789.768 482.446 792.61 482.438C796.784 482.428 795.67 483.816 785.884 490.819ZM770.668 491.233C767.177 494.937 761.628 504.963 758.34 513.512C752.678 528.23 752.323 528.674 751.676 521.856C751.299 517.897 751.583 510.718 752.305 505.902C753.445 498.304 754.907 496.329 763.358 490.966C776.131 482.859 778.48 482.946 770.668 491.233ZM803.157 492.746C803.157 497.849 801.737 499.645 794.982 503.09C788.074 506.613 786.1 509.197 782.241 519.775C779.731 526.659 776.863 532.792 775.87 533.405C774.24 534.412 775.41 509.765 777.276 503.801C778.072 501.256 798.78 486.57 801.575 486.57C802.444 486.57 803.157 489.35 803.157 492.746ZM809.377 496.933C809.377 504.762 808.616 507.295 806.267 507.295C804.557 507.295 803.157 506.362 803.157 505.222C803.157 504.082 804.09 503.15 805.231 503.15C806.371 503.15 807.304 499.419 807.304 494.86C807.304 490.301 807.77 486.57 808.341 486.57C808.911 486.57 809.377 491.233 809.377 496.933ZM886.968 501.411C889.995 509.574 891.734 516.929 890.837 517.754C889.937 518.579 877.739 525.882 863.732 533.981C847.021 543.645 837.958 547.825 837.378 546.136C836.893 544.721 834.222 535.339 831.444 525.285L826.393 507.011L830.843 505.131C839.15 501.62 878.826 486.763 880.149 486.666C880.872 486.614 883.941 493.25 886.968 501.411ZM739.394 502.632C738.815 508.047 737.109 515.274 735.604 518.693C732.935 524.749 732.871 524.61 733.106 513.35C733.236 506.994 734.094 499.766 735.011 497.289C737.943 489.368 740.482 492.464 739.394 502.632ZM684.977 505.492C699.393 510.441 716.394 522.071 725.563 533.256C729.469 538.018 732.664 542.505 732.664 543.226C732.664 543.946 727.3 541.811 720.742 538.483C704.423 530.197 679.607 523.717 657.122 521.866C646.784 521.016 641.827 520.187 646.102 520.026C650.775 519.847 653.881 518.695 653.89 517.139C653.896 515.715 654.881 511.019 656.079 506.704C658.204 499.055 658.447 498.895 665.917 500.219C670.128 500.965 678.705 503.338 684.977 505.492ZM650.78 505.241C651.489 506.391 651.532 509.031 650.871 511.11C649.894 514.192 645.37 515.491 626.376 518.146C613.563 519.939 602.773 521.109 602.398 520.749C600.431 518.857 622.122 508.795 633.488 506.329C650.11 502.723 649.256 502.777 650.78 505.241ZM591.505 530.678C591.03 531.001 588.986 532.531 586.964 534.079C583.765 536.53 583.458 536.454 584.595 533.492C585.314 531.623 587.356 530.091 589.135 530.091C590.912 530.091 591.98 530.355 591.505 530.678ZM612.11 547.552C622.08 552.706 623.248 558.824 617.142 573.903C614.059 581.512 611.376 592.985 610.793 601.047C610.238 608.728 608.598 615.996 607.148 617.198C603 620.64 594.352 617.328 587.692 609.747C574.058 594.225 577.458 556.411 593.259 547.842C600.478 543.927 604.963 543.856 612.11 547.552ZM541.399 556.498C533.7 556.896 521.107 556.896 513.409 556.498C505.71 556.098 512.009 555.773 527.404 555.773C542.798 555.773 549.097 556.098 541.399 556.498ZM939.537 566.121C943.066 567.944 946.535 570.377 947.246 571.525C948.994 574.352 947.739 574.157 940.752 570.516C936.278 568.183 926.641 567.358 901.641 567.167C865.768 566.894 865.254 566.612 893.306 562.595C913.639 559.684 929.409 560.886 939.537 566.121ZM564.724 563.25C561.873 564.162 539.014 564.91 513.927 564.91C488.155 564.91 470.569 564.187 473.497 563.25C476.348 562.338 499.206 561.59 524.294 561.59C550.065 561.59 567.651 562.313 564.724 563.25ZM457.947 569.468C457.242 570.607 455.554 571.525 454.196 571.509C452.712 571.488 452.969 570.674 454.837 569.468C458.82 566.894 459.537 566.894 457.947 569.468ZM500.002 570.402C500.629 571.028 491.889 571.474 480.581 571.395C469.271 571.314 461.706 570.585 463.765 569.772C467.973 568.112 498.24 568.639 500.002 570.402ZM508.182 568.647C507.493 569.335 505.704 569.41 504.209 568.811C502.555 568.149 503.046 567.658 505.461 567.559C507.647 567.47 508.87 567.959 508.182 568.647ZM530.568 571.14C529.931 571.778 528.258 571.142 526.85 569.724C524.818 567.677 525.057 567.441 528.011 568.564C530.055 569.343 531.206 570.502 530.568 571.14ZM565.964 568.918C565.613 569.269 553.837 572.86 539.792 576.903C525.747 580.945 510.79 586.018 506.556 588.177C490.67 596.279 479.773 611.753 472.238 636.911C468.027 650.968 467.466 687.409 471.243 701.431C475.842 718.502 490.631 733.189 503.22 733.189H509.525L505.121 737.291C500.788 741.326 500.521 741.33 488.661 737.585C482.031 735.49 470.076 732.559 462.093 731.071C454.111 729.583 448.577 728.031 449.794 727.623C451.014 727.212 458.243 728.184 465.863 729.78C479.443 732.626 482.545 731.898 476.876 727.196C475.315 725.901 472.394 720.425 470.385 715.027C468.376 709.628 465.881 704.279 464.843 703.139C463.802 701.999 444.101 696.35 421.062 690.586C388.61 682.467 379.019 679.314 378.495 676.598C378.123 674.668 379.054 673.112 380.564 673.141C382.073 673.17 401.477 677.779 423.685 683.383C445.895 688.987 464.368 693.266 464.739 692.897C465.11 692.526 464.615 684.653 463.638 675.402C462.662 666.15 462.483 658.582 463.24 658.582C463.997 658.582 465.828 651.353 467.308 642.521C468.786 633.688 472.184 621.448 474.857 615.322C477.529 609.196 479.717 603.41 479.717 602.463C479.717 601.518 473.42 600.417 465.722 600.019L451.727 599.294L467.899 598.888C483.318 598.5 484.415 598.146 491.493 591.274L498.918 584.066L458.737 583.454L418.553 582.843L465.063 582.372C504.775 581.97 514.016 581.262 528.299 577.513C537.499 575.1 545.829 572.035 546.81 570.705C547.791 569.372 552.644 568.284 557.596 568.284C562.549 568.284 566.314 568.57 565.964 568.918ZM522.695 570.719C522.007 571.407 520.217 571.482 518.723 570.883C517.068 570.222 517.559 569.731 519.975 569.631C522.16 569.542 523.383 570.031 522.695 570.719ZM939.083 574.582C941.295 576.257 944.973 577.728 947.254 577.855C949.535 577.981 950.335 578.522 949.035 579.055C947.422 579.716 948.084 582.801 951.109 588.735C953.549 593.526 956.078 597.912 956.729 598.481C957.378 599.051 957.318 601.849 956.597 604.699C955.427 609.308 955.129 608.966 953.885 601.59C952.01 590.459 945.369 580.145 938.117 577.096C934.304 575.494 916.285 574.354 887.88 573.919C863.518 573.546 843.2 572.858 842.723 572.39C842.248 571.923 862.83 571.54 888.458 571.54C926.222 571.54 935.822 572.116 939.083 574.582ZM517.037 576.213C511.263 578.816 423.737 580.002 423.737 577.475C423.737 574.746 432.609 574.178 477.644 574.027C512.314 573.909 521.067 574.394 517.037 576.213ZM833.695 579.009C833.007 579.697 831.218 579.772 829.723 579.173C828.068 578.512 828.56 578.02 830.975 577.921C833.161 577.832 834.384 578.321 833.695 579.009ZM865.876 579.129C864.451 579.705 862.119 579.705 860.692 579.129C859.268 578.555 860.433 578.085 863.284 578.085C866.135 578.085 867.302 578.555 865.876 579.129ZM940.783 583.587C948.013 590.014 954.766 613.003 947.702 607.144C943.564 603.71 939.307 607.722 939.307 615.061C939.307 626.341 948.61 627.442 951.167 616.464C951.743 613.983 951.782 617.548 951.254 624.387C950.126 638.995 943.823 649.405 930.18 659.195C921.474 665.442 921.358 665.46 917 661.521C906.901 652.392 899.066 625.228 901.581 608.066C904.253 589.827 907.235 581.873 911.767 580.897C926.587 577.71 935.053 578.493 940.783 583.587ZM545.301 591.75C551.176 599.429 561.33 623.981 559.418 625.891C558.989 626.32 550.662 625.854 540.916 624.855C525.554 623.28 522.181 623.543 515.583 626.822C503.415 632.871 499.897 639.46 498.947 657.975C497.57 684.831 505.049 692.052 537.115 694.825L554.083 696.292L551.811 701.274C550.563 704.014 541.623 711.383 531.944 717.65C509.919 731.911 500.832 732.891 488.773 722.309C476.091 711.178 472.964 701.232 473.022 672.198C473.064 652.707 474.026 644.189 477.382 633.626C482.443 617.701 491.369 603.449 500.512 596.691C507.197 591.752 533.006 581.815 536.734 582.746C537.874 583.032 541.73 587.083 545.301 591.75ZM784.004 583.326C782.022 583.844 778.29 583.863 775.71 583.367C773.131 582.872 774.753 582.447 779.314 582.424C783.875 582.402 785.986 582.808 784.004 583.326ZM826.482 583.274C825.058 583.85 822.725 583.85 821.299 583.274C819.875 582.7 821.04 582.229 823.891 582.229C826.741 582.229 827.909 582.7 826.482 583.274ZM850.282 583.154C849.594 583.842 847.804 583.916 846.31 583.318C844.655 582.656 845.146 582.165 847.562 582.066C849.747 581.977 850.971 582.466 850.282 583.154ZM872.855 586.262C865.005 588.499 858.175 589.92 857.676 589.421C857.176 588.921 859.633 587.885 863.135 587.116C866.639 586.347 869.504 584.859 869.504 583.811C869.504 582.76 873.47 581.968 878.316 582.049C886.959 582.194 886.856 582.275 872.855 586.262ZM899.526 595.891C894.938 618.221 899.294 646.945 909.175 659.5C913.094 664.48 913.117 664.795 909.567 664.727C907.488 664.687 899.742 663.359 892.354 661.775C876.883 658.462 873.112 654.918 868.486 639.348C864.621 626.335 864.244 595.269 867.926 592.994C871.163 590.994 894.314 584.321 898.699 584.122C901.593 583.991 901.688 585.365 899.526 595.891ZM485.412 590.71C484.774 592.608 477.668 593.257 458.803 593.135C410.071 592.82 400.644 592.331 401.967 590.192C403.999 586.905 486.519 587.417 485.412 590.71ZM834.257 590.192C831.407 591.104 808.548 591.852 783.461 591.852C757.689 591.852 740.103 591.129 743.031 590.192C745.881 589.28 768.74 588.532 793.827 588.532C819.599 588.532 837.185 589.255 834.257 590.192ZM854.429 591.444C853.74 592.132 851.951 592.206 850.456 591.607C848.802 590.946 849.293 590.455 851.709 590.356C853.894 590.266 855.117 590.755 854.429 591.444ZM846.525 593.068C846.05 593.51 831.711 597.75 814.664 602.49C797.615 607.231 779.14 613.573 773.606 616.582C749.655 629.614 736.033 662.98 737.847 704.175C738.82 726.245 740.885 734.992 747.339 744.376C753.596 753.476 760.378 758.027 770.521 759.936C777.089 761.173 778.395 761.988 775.686 763.155C770.589 765.351 771.17 768.39 776.722 768.584C779.289 768.673 780.305 769.189 778.982 769.73C777.659 770.271 770.873 768.843 763.903 766.555C756.932 764.267 743.296 760.823 733.601 758.898C723.906 756.972 716.361 755.012 716.834 754.537C717.309 754.065 724.605 754.981 733.05 756.575L748.403 759.472L740.516 743.663L732.631 727.855L690.919 717.578C653.703 708.409 644.321 704.745 648.178 700.891C648.746 700.323 665.89 703.989 686.273 709.039C706.656 714.088 725.888 718.805 729.013 719.52L734.689 720.821L733.363 704.727C732.631 695.875 731.165 688.062 730.101 687.366C729.04 686.67 729.51 685.586 731.148 684.958C734.364 683.725 739.954 659.917 737.833 656.487C737.136 655.359 737.555 654.437 738.762 654.437C739.968 654.437 740.957 653.001 740.957 651.246C740.957 649.49 742.898 644.251 745.272 639.601C747.646 634.952 748.811 630.374 747.863 629.427C746.916 628.48 739.61 627.375 731.627 626.971L717.114 626.235L734.911 625.829C752.555 625.427 752.783 625.353 761.632 617.187C766.54 612.659 771.24 609.376 772.078 609.892C773.718 610.906 813.076 601.124 816.586 598.832C819.993 596.606 848.652 591.089 846.525 593.068ZM434.622 597.926C429.774 598.363 421.846 598.363 416.998 597.926C412.151 597.491 416.117 597.132 425.81 597.132C435.503 597.132 439.469 597.491 434.622 597.926ZM763.246 597.837C761.251 598.359 757.983 598.359 755.989 597.837C753.994 597.317 755.626 596.89 759.617 596.89C763.608 596.89 765.24 597.317 763.246 597.837ZM804.75 597.891C801.633 598.363 796.035 598.372 792.31 597.912C788.584 597.449 791.132 597.062 797.974 597.052C804.816 597.039 807.866 597.416 804.75 597.891ZM453.8 603.915C464.063 604.587 472.732 605.387 473.066 605.696C473.397 606.002 472.157 610.033 470.308 614.651C467.994 620.433 465.869 622.849 463.485 622.406C461.579 622.053 452.556 621.127 443.433 620.348C434.311 619.571 417.755 617.595 406.646 615.96C395.535 614.325 385.453 612.989 384.24 612.989C383.016 612.989 383.703 610.149 385.78 606.61L389.527 600.231L412.333 601.462C424.877 602.139 443.537 603.242 453.8 603.915ZM784.495 603.144C784.497 605.136 786.367 605.037 737.847 605.64C697.88 606.135 686.522 605.269 697.438 602.556C704.78 600.732 784.495 601.271 784.495 603.144ZM702.082 610.216C700.658 610.792 698.325 610.792 696.899 610.216C695.474 609.642 696.64 609.171 699.49 609.171C702.341 609.171 703.509 609.642 702.082 610.216ZM754.909 610.095C754.22 610.783 752.431 610.858 750.936 610.259C749.282 609.598 749.773 609.107 752.188 609.007C754.374 608.918 755.597 609.407 754.909 610.095ZM946.217 615.475C946.217 618.822 945.604 619.421 943.91 617.728C942.641 616.46 942.23 614.408 942.996 613.169C945.141 609.7 946.217 610.471 946.217 615.475ZM800.157 626.894C812.494 651.405 816.593 686.746 810.555 716.535C806.01 738.951 803.099 744.269 791.725 750.931C773.784 761.441 758.529 756.475 748.494 736.857C743.254 726.618 742.456 722.607 741.917 703.808C741.556 691.202 742.456 677.105 744.107 669.489C747.221 655.104 757.426 634.419 764.842 627.456C770.477 622.165 788.727 612.852 791.754 613.722C792.894 614.052 796.676 619.979 800.157 626.894ZM958.658 618.047C958.658 620.831 957.919 623.562 957.018 624.12C956.116 624.677 955.413 622.399 955.458 619.061C955.502 615.72 956.24 612.989 957.098 612.989C957.957 612.989 958.658 615.264 958.658 618.047ZM754.965 617.651C753.773 621.272 741.096 621.879 701.817 620.196C655.409 618.207 663.17 615.134 714.694 615.092C746.675 615.067 755.626 615.637 754.965 617.651ZM390.002 618.385C389.313 619.073 387.524 619.148 386.029 618.549C384.375 617.888 384.866 617.397 387.281 617.297C389.467 617.208 390.69 617.697 390.002 618.385ZM404.558 620.634C402.562 621.156 399.298 621.156 397.302 620.634C395.305 620.114 396.939 619.687 400.93 619.687C404.921 619.687 406.555 620.114 404.558 620.634ZM423.243 622.702C421.261 623.22 417.529 623.239 414.95 622.743C412.371 622.248 413.992 621.823 418.553 621.801C423.115 621.778 425.225 622.184 423.243 622.702ZM424.773 627.742C446.44 630.169 464.505 632.455 464.919 632.822C465.332 633.188 464.526 638.262 463.126 644.094C461.258 651.873 459.786 654.394 457.599 653.554C454.999 652.557 410.32 644.79 384.872 640.91C380.033 640.173 375.737 638.952 375.329 638.195C373.479 634.776 378.466 623.351 381.812 623.34C383.773 623.334 403.107 625.315 424.773 627.742ZM440.842 624.723C439.417 625.299 437.085 625.299 435.658 624.723C434.234 624.149 435.399 623.678 438.25 623.678C441.101 623.678 442.268 624.149 440.842 624.723ZM700.009 624.868C695.163 625.305 687.231 625.305 682.385 624.868C677.54 624.432 681.504 624.074 691.197 624.074C700.89 624.074 704.854 624.432 700.009 624.868ZM462.612 626.851C460.615 627.373 457.352 627.373 455.355 626.851C453.359 626.331 454.992 625.904 458.983 625.904C462.975 625.904 464.608 626.331 462.612 626.851ZM562.598 630.884L578.097 632.268L590.031 645.074C602.38 658.323 615.325 666.654 630.552 671.145L639.364 673.746V685.679C639.364 693.191 640.324 698.066 641.955 698.837C646.933 701.187 534.687 691.728 518.648 688.446C515.542 687.811 510.527 684.35 507.5 680.755C502.325 674.606 502.065 673.3 503.164 658.781C505.007 634.43 513.164 626.569 534.66 628.426C541.502 629.017 554.075 630.123 562.598 630.884ZM716.077 630.753C730.331 631.475 742.265 632.32 742.599 632.631C742.931 632.942 741.681 637.004 739.817 641.656C736.589 649.72 736.074 650.075 728.845 649.2C724.673 648.696 707.732 646.811 691.197 645.01C674.662 643.209 659.04 641.23 656.483 640.612C651.916 639.507 651.897 639.375 655.447 633.363C659.048 627.257 659.114 627.239 674.61 628.339C683.163 628.944 701.823 630.032 716.077 630.753ZM774.193 644.603C761.97 650.906 753.905 674.133 756.229 696.348C761.127 743.18 796.081 748.198 805.224 703.382C812.301 668.697 794.149 634.316 774.193 644.603ZM384.862 645.447C383.437 646.023 381.105 646.023 379.678 645.447C378.254 644.873 379.419 644.402 382.27 644.402C385.121 644.402 386.288 644.873 384.862 645.447ZM399.414 647.507C398.011 648.075 395.212 648.11 393.194 647.584C391.177 647.057 392.326 646.593 395.747 646.551C399.168 646.51 400.818 646.939 399.414 647.507ZM674.092 647.575C672.098 648.097 668.83 648.097 666.835 647.575C664.841 647.055 666.473 646.628 670.464 646.628C674.455 646.628 676.087 647.055 674.092 647.575ZM789.239 650.315C807.258 664.484 806.149 716.054 787.562 728.228C782.548 731.513 781.36 731.585 776.484 728.914C773.48 727.268 768.688 721.263 765.837 715.567C761.492 706.886 760.668 702.362 760.749 687.596C760.853 668.401 765.408 655.803 774.564 649.393C780.616 645.157 782.855 645.298 789.239 650.315ZM411.854 649.579C410.451 650.147 407.652 650.182 405.634 649.656C403.617 649.13 404.766 648.665 408.187 648.624C411.608 648.582 413.258 649.011 411.854 649.579ZM690.704 649.644C688.722 650.162 684.99 650.18 682.41 649.685C679.831 649.19 681.452 648.765 686.014 648.742C690.575 648.719 692.686 649.125 690.704 649.644ZM953.559 652.226C952.809 653.442 951.2 654.437 949.989 654.437C948.612 654.437 948.77 653.248 950.406 651.279C953.25 647.853 955.79 648.618 953.559 652.226ZM420.977 656.57C441.186 660.022 457.916 663.052 458.152 663.305C458.388 663.556 459.247 669.124 460.06 675.679C461.113 684.187 460.847 687.596 459.129 687.596C457.091 687.596 407.057 675.414 381.752 668.758C374.42 666.828 373.977 666.244 373.977 658.501C373.977 648.253 372.619 648.309 420.977 656.57ZM422.182 651.664C420.757 652.24 418.425 652.24 416.998 651.664C415.574 651.09 416.739 650.62 419.59 650.62C422.441 650.62 423.608 651.09 422.182 651.664ZM694.183 654.669C715.918 657.077 733.85 659.175 734.03 659.332C734.213 659.49 733.379 664.563 732.181 670.606C730.624 678.446 729.193 681.285 727.188 680.517C725.644 679.924 706.418 676.477 684.463 672.855C662.51 669.232 644.222 666.001 643.821 665.674C641.736 663.958 648.399 650.292 651.321 650.292C653.16 650.292 672.448 652.261 694.183 654.669ZM707.266 651.72C705.271 652.242 702.003 652.242 700.009 651.72C698.014 651.2 699.646 650.773 703.637 650.773C707.628 650.773 709.26 651.2 707.266 651.72ZM434.622 653.737C433.197 654.313 430.865 654.313 429.438 653.737C428.014 653.162 429.179 652.692 432.03 652.692C434.881 652.692 436.048 653.162 434.622 653.737ZM729.075 653.724C727.671 654.292 724.872 654.327 722.855 653.801C720.838 653.274 721.986 652.81 725.407 652.769C728.828 652.727 730.479 653.156 729.075 653.724ZM453.8 656.509C459.388 657.931 459.494 658.095 454.837 658.13C451.986 658.151 447.321 657.421 444.47 656.509C440.408 655.21 440.185 654.858 443.433 654.889C445.714 654.91 450.379 655.639 453.8 656.509ZM896.976 666.936C905.812 668.353 913.044 670.092 913.044 670.803C913.044 671.512 911.41 673.139 909.416 674.419C907.421 675.698 884.629 690.379 858.77 707.039C832.91 723.702 811.322 737.334 810.795 737.334C810.271 737.334 811.092 731.973 812.62 725.418C814.15 718.863 815.973 709.039 816.673 703.587C818.121 692.309 817.409 692.903 852.917 673.267C867.076 665.435 875.774 661.773 877.797 662.791C879.508 663.653 888.139 665.516 896.976 666.936ZM939.997 663.641C939.997 664.144 939.064 665.131 937.924 665.835C936.784 666.54 935.851 666.128 935.851 664.921C935.851 663.715 936.784 662.727 937.924 662.727C939.064 662.727 939.997 663.137 939.997 663.641ZM665.799 674.517C663.804 675.039 660.537 675.039 658.542 674.517C656.548 673.997 658.179 673.57 662.17 673.57C666.162 673.57 667.793 673.997 665.799 674.517ZM925.484 674.003C925.484 674.506 924.551 675.493 923.411 676.198C922.27 676.902 921.337 676.49 921.337 675.284C921.337 674.077 922.27 673.089 923.411 673.089C924.551 673.089 925.484 673.499 925.484 674.003ZM679.275 676.533C677.851 677.109 675.519 677.109 674.092 676.533C672.668 675.959 673.833 675.489 676.684 675.489C679.535 675.489 680.702 675.959 679.275 676.533ZM697.761 684.854L728.171 690.311L728.861 701.655C729.249 707.984 728.637 713.333 727.481 713.758C726.34 714.175 707.214 710.071 684.977 704.637L644.547 694.756L643.894 685.693L643.243 676.631L655.297 678.015C661.928 678.776 681.038 681.853 697.761 684.854ZM691.755 678.593C690.351 679.161 687.552 679.196 685.535 678.67C683.518 678.144 684.666 677.679 688.087 677.638C691.508 677.596 693.159 678.025 691.755 678.593ZM702.082 680.678C700.658 681.254 698.325 681.254 696.899 680.678C695.474 680.104 696.64 679.634 699.49 679.634C702.341 679.634 703.509 680.104 702.082 680.678ZM714.562 682.738C713.158 683.306 710.359 683.341 708.342 682.815C706.324 682.288 707.473 681.824 710.894 681.783C714.315 681.741 715.965 682.17 714.562 682.738ZM422.389 695.075L461.469 704.793L465.463 714.104C467.658 719.225 468.952 723.917 468.336 724.531C465.291 727.577 384.352 707.448 379.979 702.557C379.247 701.736 378.146 697.067 377.535 692.178C376.585 684.576 376.921 683.441 379.865 684.324C381.758 684.891 400.893 689.731 422.389 695.075ZM724.889 684.823C723.464 685.399 721.132 685.399 719.706 684.823C718.281 684.249 719.446 683.778 722.297 683.778C725.148 683.778 726.315 684.249 724.889 684.823ZM909.812 686.493C904.206 690.734 899.173 690.779 902.677 686.56C904.098 684.85 907.189 683.451 909.548 683.451C913.764 683.451 913.768 683.503 909.812 686.493ZM897.969 692.993C897.281 693.681 895.491 693.755 893.996 693.156C892.342 692.495 892.833 692.004 895.249 691.904C897.434 691.815 898.657 692.304 897.969 692.993ZM892.311 697.556C892.311 699.749 884.782 704.045 880.907 704.063C877.034 704.082 877.082 703.835 881.643 700.329C886.153 696.862 892.311 695.262 892.311 697.556ZM576.249 703.205C574.035 704.878 570.423 706.248 568.219 706.248C564.896 706.248 564.655 705.719 566.797 703.139C568.217 701.429 571.829 700.06 574.825 700.097C580.064 700.159 580.118 700.279 576.249 703.205ZM874.169 707.62C872.745 708.196 870.412 708.196 868.986 707.62C867.561 707.046 868.727 706.575 871.577 706.575C874.428 706.575 875.596 707.046 874.169 707.62ZM561.095 709.692C559.671 710.268 557.338 710.268 555.912 709.692C554.488 709.118 555.653 708.648 558.504 708.648C561.354 708.648 562.522 709.118 561.095 709.692ZM393.673 712.465C396.408 713.64 396.761 714.285 394.71 714.359C393 714.423 390.201 713.57 388.49 712.465C384.7 710.017 387.974 710.017 393.673 712.465ZM704.425 725.472L731.132 732.288L735.079 742.337C737.252 747.864 738.764 752.622 738.438 752.908C735.521 755.489 651.346 733.334 648.874 729.337C648.287 728.39 647.203 723.832 646.465 719.213L645.121 710.813L661.42 714.732C670.385 716.89 689.738 721.72 704.425 725.472ZM870.348 712.152C871.895 714.656 862.515 719.25 857.854 718.272C854.568 717.582 854.935 716.91 860.174 714.005C867.381 710.011 868.857 709.742 870.348 712.152ZM556.036 714.249C559.602 716.51 550.279 722.858 543.545 722.753C538.998 722.682 539.058 722.473 545.027 717.582C551.958 711.903 552.213 711.827 556.036 714.249ZM408.187 716.61C410.801 717.733 411.183 718.39 409.223 718.39C407.513 718.39 404.247 717.59 401.967 716.61C399.352 715.487 398.971 714.83 400.93 714.83C402.641 714.83 405.906 715.63 408.187 716.61ZM404.158 721.598C413.345 724.294 432.938 729.028 447.698 732.12C476.621 738.176 502.49 745.193 505.314 747.75C509.011 751.097 486.126 753.926 471.797 751.895C435.121 746.695 405.06 736.451 392.112 724.742C387.269 720.363 384.24 716.761 385.38 716.738C386.52 716.716 394.971 718.902 404.158 721.598ZM425.248 722.006C424.56 722.695 422.771 722.769 421.276 722.17C419.621 721.509 420.113 721.018 422.528 720.918C424.713 720.829 425.937 721.318 425.248 722.006ZM433.542 724.079C432.853 724.767 431.064 724.842 429.569 724.243C427.915 723.582 428.406 723.09 430.821 722.991C433.007 722.902 434.23 723.391 433.542 724.079ZM443.908 726.151C443.22 726.839 441.431 726.914 439.936 726.315C438.281 725.654 438.773 725.163 441.188 725.063C443.373 724.974 444.597 725.463 443.908 726.151ZM538.289 726.272C536.864 726.848 534.532 726.848 533.105 726.272C531.681 725.697 532.846 725.227 535.697 725.227C538.548 725.227 539.715 725.697 538.289 726.272ZM845.783 730.147C843.569 731.819 839.957 733.189 837.753 733.189C834.429 733.189 834.189 732.661 836.331 730.081C837.751 728.371 841.363 727.001 844.359 727.038C849.598 727.101 849.652 727.221 845.783 730.147ZM532.404 730.823C533.976 733.365 520.759 740.028 515.969 739.106C512.592 738.455 513.1 737.601 519.16 733.724C526.867 728.796 530.64 727.969 532.404 730.823ZM830.629 736.634C829.205 737.21 826.872 737.21 825.446 736.634C824.021 736.06 825.186 735.589 828.037 735.589C830.888 735.589 832.055 736.06 830.629 736.634ZM666.317 740.443C670.308 741.978 672.174 743.265 670.464 743.301C668.753 743.336 664.555 742.084 661.134 740.517C653.127 736.853 656.85 736.799 666.317 740.443ZM828.037 742.704C828.037 744.308 815.589 749.765 812.073 749.702C808.987 749.648 809.313 748.782 813.957 744.693C817.532 741.549 821.114 740.153 823.806 740.857C826.134 741.465 828.037 742.296 828.037 742.704ZM511.335 742.851C509.911 743.427 507.578 743.427 506.152 742.851C504.728 742.277 505.893 741.806 508.744 741.806C511.594 741.806 512.762 742.277 511.335 742.851ZM686.014 751.868C698.557 755.217 718.151 759.872 729.554 762.209C749.709 766.342 756.997 768.309 772.057 773.674L779.314 776.261L770.173 778.727C759.626 781.572 757.43 781.249 712.967 770.327C677.857 761.702 659.481 754.293 655.704 747.234C653.62 743.342 653.86 743.077 658.308 744.362C661.001 745.143 673.47 748.521 686.014 751.868ZM683.94 745.624C686.555 746.747 686.936 747.404 684.977 747.404C683.267 747.404 680.001 746.604 677.72 745.624C675.106 744.501 674.724 743.844 676.684 743.844C678.394 743.844 681.66 744.644 683.94 745.624ZM703.075 751.02C702.387 751.709 700.598 751.783 699.103 751.184C697.448 750.523 697.94 750.032 700.355 749.932C702.54 749.843 703.764 750.332 703.075 751.02ZM712.449 753.213C711.024 753.789 708.692 753.789 707.266 753.213C705.841 752.639 707.006 752.169 709.857 752.169C712.708 752.169 713.875 752.639 712.449 753.213ZM807.862 753.201C806.458 753.769 803.659 753.804 801.642 753.277C799.624 752.751 800.773 752.287 804.194 752.245C807.615 752.204 809.265 752.633 807.862 753.201ZM797.215 762.643C793.719 764.854 788.31 766.344 785.107 765.977C779.48 765.331 779.573 765.183 788.347 760.798C799.562 755.196 806.651 756.67 797.215 762.643Z" fill="#F1F1EF"/>
</g>
<defs>
<clipPath id="clip0_103_9">
<rect width="846" height="695" fill="white"/>
</clipPath>
</defs>
</svg>
